# xmcd CD database file
#
# Track frame offsets:
#	150
#	23045
#	35804
#	58716
#	66564
#	86881
#
# Disc length: 1348 seconds
#
# Revision: 2
# Processed by: cddbd v1.5.1PL0 Copyright (c) Steve Scherf et al.
# Submitted via: CDex 1.51
#
DISCID=55054206
DTITLE=Mercy Breheny - Jazz Demo 2005
DYEAR=2005
DGENRE=Jazz
TTITLE0=You don't know what love is
TTITLE1=Days of wine and roses
TTITLE2=The way you look tonight
TTITLE3=What's new?
TTITLE4=The thrill is gone
TTITLE5=Blue moon
EXTD=YEAR: 2005
EXTT0=
EXTT1=
EXTT2=
EXTT3=
EXTT4=
EXTT5=
PLAYORDER=
